<svg width="21" height="20" viewBox="0 0 21 20" fill="none" xmlns="http://www.w3.org/2000/svg">
<path d="M19.5 0H4.5C3.96957 0 3.46086 0.210714 3.08579 0.585786C2.71071 0.960859 2.5 1.46957 2.5 2V5H0.5V7H2.5V9H0.5V11H2.5V13H0.5V15H2.5V18C2.5 18.5304 2.71071 19.0391 3.08579 19.4142C3.46086 19.7893 3.96957 20 4.5 20H19.5C19.7652 20 20.0196 19.8946 20.2071 19.7071C20.3946 19.5196 20.5 19.2652 20.5 19V1C20.5 0.734784 20.3946 0.48043 20.2071 0.292893C20.0196 0.105357 19.7652 0 19.5 0ZM11.5 2.999C13.148 2.999 14.5 4.35 14.5 5.999C14.4971 6.79385 14.1801 7.55533 13.6182 8.11747C13.0562 8.67962 12.2948 8.99684 11.5 9C9.853 9 8.5 7.647 8.5 5.999C8.5 4.35 9.853 2.999 11.5 2.999ZM17.5 16H5.5V15.25C5.5 13.031 8.205 10.75 11.5 10.75C14.795 10.75 17.5 13.031 17.5 15.25V16Z" fill="url(#paint0_linear_590_293)"/>
<defs>
<linearGradient id="paint0_linear_590_293" x1="10.5" y1="0" x2="10.5" y2="20" gradientUnits="userSpaceOnUse">
<stop offset="0.4" stop-color="#7E7B6E"/>
<stop offset="1" stop-color="#1A1003" stop-opacity="0.8"/>
</linearGradient>
</defs>
</svg>
